<svg xmlns="http://www.w3.org/2000/svg" style="display:none;">
                                    <defs>
                                    <symbol id='plus-solid-full' viewBox='0 0 640 640'>
		<path d="M352 128C352 110.3 337.7 96 320 96C302.3 96 288 110.3 288 128L288 288L128 288C110.3 288 96 302.3 96 320C96 337.7 110.3 352 128 352L288 352L288 512C288 529.7 302.3 544 320 544C337.7 544 352 529.7 352 512L352 352L512 352C529.7 352 544 337.7 544 320C544 302.3 529.7 288 512 288L352 288L352 128z" fill='currentColor'></path>
                                    </symbol>
                                    
                                        <symbol id='xmark-solid-full' viewBox='0 0 640 640'>
		<path d="M183.1 137.4C170.6 124.9 150.3 124.9 137.8 137.4C125.3 149.9 125.3 170.2 137.8 182.7L275.2 320L137.9 457.4C125.4 469.9 125.4 490.2 137.9 502.7C150.4 515.2 170.7 515.2 183.2 502.7L320.5 365.3L457.9 502.6C470.4 515.1 490.7 515.1 503.2 502.6C515.7 490.1 515.7 469.8 503.2 457.3L365.8 320L503.1 182.6C515.6 170.1 515.6 149.8 503.1 137.3C490.6 124.8 470.3 124.8 457.8 137.3L320.5 274.7L183.1 137.4z" fill='currentColor'></path></symbol>
                                            
                                        <symbol id='angle-down-solid-full' viewBox='0 0 640 640'>
		<path d="M297.4 438.6C309.9 451.1 330.2 451.1 342.7 438.6L502.7 278.6C515.2 266.1 515.2 245.8 502.7 233.3C490.2 220.8 469.9 220.8 457.4 233.3L320 370.7L182.6 233.4C170.1 220.9 149.8 220.9 137.3 233.4C124.8 245.9 124.8 266.2 137.3 278.7L297.3 438.7z" fill='currentColor'></path></symbol>
                                            </defs>
                                            </svg>